<svg width="20" height="22" viewBox="0 0 20 22" fill="none" xmlns="http://www.w3.org/2000/svg">
<g filter="url(#filter0_b)">
<path d="M18.5938 10.7891C18.5938 11.0104 18.5807 11.2122 18.5547 11.3945C18.5286 11.5638 18.4961 11.7135 18.457 11.8438C18.418 11.974 18.3659 12.0781 18.3008 12.1562C18.2357 12.2214 18.1641 12.2734 18.0859 12.3125L2.75391 20.0469C2.61068 20.112 2.48698 20.151 2.38281 20.1641C2.27865 20.1641 2.19401 20.1185 2.12891 20.0273C2.07682 19.9362 2.03776 19.7995 2.01172 19.6172C1.98568 19.4219 1.97266 19.1745 1.97266 18.875C1.97266 18.5104 1.97917 18.2174 1.99219 17.9961C2.00521 17.7747 2.03125 17.599 2.07031 17.4688C2.1224 17.3255 2.19401 17.2148 2.28516 17.1367C2.3763 17.0586 2.49349 16.987 2.63672 16.9219L15.2344 10.7305L2.71484 4.69531C2.54557 4.61719 2.40885 4.54557 2.30469 4.48047C2.21354 4.40234 2.14193 4.29167 2.08984 4.14844C2.03776 4.00521 2.00521 3.82292 1.99219 3.60156C1.97917 3.36719 1.97266 3.0612 1.97266 2.68359C1.97266 2.34505 1.98568 2.08464 2.01172 1.90234C2.03776 1.70703 2.07682 1.57031 2.12891 1.49219C2.19401 1.40104 2.27865 1.36198 2.38281 1.375C2.48698 1.38802 2.61068 1.43359 2.75391 1.51172L18.1445 9.26562C18.2747 9.33073 18.3789 9.49349 18.457 9.75391C18.5482 10.0013 18.5938 10.3464 18.5938 10.7891Z" fill="black"/>
<path d="M18.5547 11.3945L19.5431 11.5466L19.5446 11.536L18.5547 11.3945ZM18.3008 12.1562L19.0079 12.8634L19.04 12.8313L19.069 12.7964L18.3008 12.1562ZM18.0859 12.3125L17.6387 11.4181L17.6355 11.4197L18.0859 12.3125ZM2.75391 20.0469L3.16771 20.9572L3.18618 20.9488L3.2043 20.9397L2.75391 20.0469ZM2.38281 20.1641V21.1641H2.44507L2.50685 21.1563L2.38281 20.1641ZM2.12891 20.0273L1.26066 20.5235L1.28577 20.5674L1.31517 20.6086L2.12891 20.0273ZM2.01172 19.6172L1.02045 19.7494L1.02177 19.7586L2.01172 19.6172ZM2.07031 17.4688L1.13052 17.127L1.12072 17.1539L1.11249 17.1814L2.07031 17.4688ZM2.63672 16.9219L3.05052 17.8322L3.06426 17.826L3.0778 17.8193L2.63672 16.9219ZM15.2344 10.7305L15.6755 11.6279L17.5192 10.7218L15.6686 9.82967L15.2344 10.7305ZM2.71484 4.69531L3.14908 3.79451L3.14152 3.79087L3.1339 3.78735L2.71484 4.69531ZM2.30469 4.48047L1.6539 5.23973L1.71096 5.28864L1.77469 5.32847L2.30469 4.48047ZM1.99219 3.60156L0.993722 3.65703L0.993913 3.66028L1.99219 3.60156ZM2.01172 1.90234L3.00171 2.04377L3.00295 2.03451L2.01172 1.90234ZM2.12891 1.49219L1.31517 0.910949L1.3058 0.924071L1.29686 0.937487L2.12891 1.49219ZM2.75391 1.51172L2.27505 2.38961L2.28939 2.39743L2.30397 2.40478L2.75391 1.51172ZM18.1445 9.26562L17.6946 10.1587L17.6973 10.1601L18.1445 9.26562ZM18.457 9.75391L17.4992 10.0413L17.508 10.0707L17.5187 10.0996L18.457 9.75391ZM17.5938 10.7891C17.5938 10.9722 17.5829 11.1259 17.5647 11.2531L19.5446 11.536C19.5785 11.2986 19.5938 11.0486 19.5938 10.7891H17.5938ZM17.5663 11.2425C17.5456 11.3772 17.5221 11.4802 17.4992 11.5564L19.4149 12.1311C19.4701 11.9469 19.5117 11.7504 19.5431 11.5466L17.5663 11.2425ZM17.4992 11.5564C17.4935 11.5754 17.4908 11.5793 17.4942 11.5723C17.4978 11.5652 17.5092 11.5441 17.5326 11.5161L19.069 12.7964C19.2443 12.5861 19.3494 12.3494 19.4149 12.1311L17.4992 11.5564ZM17.5937 11.4491C17.6004 11.4424 17.6156 11.4296 17.6387 11.4181L18.5332 13.2069C18.7125 13.1172 18.8709 13.0003 19.0079 12.8634L17.5937 11.4491ZM17.6355 11.4197L2.30351 19.154L3.2043 20.9397L18.5363 13.2053L17.6355 11.4197ZM2.3401 19.1365C2.29773 19.1558 2.26899 19.1662 2.25258 19.1714C2.23558 19.1768 2.23871 19.1743 2.25878 19.1718L2.50685 21.1563C2.74779 21.1262 2.97361 21.0455 3.16771 20.9572L2.3401 19.1365ZM2.38281 19.1641C2.48202 19.1641 2.59991 19.1873 2.71531 19.2494C2.82814 19.3102 2.90098 19.3878 2.94264 19.4461L1.31517 20.6086C1.55142 20.9393 1.92821 21.1641 2.38281 21.1641V19.1641ZM2.99715 19.5312C3.01051 19.5546 3.01777 19.5716 3.02076 19.579C3.02382 19.5867 3.02391 19.5881 3.02207 19.5817C3.01805 19.5677 3.01002 19.5342 3.00167 19.4758L1.02177 19.7586C1.05426 19.986 1.11566 20.2697 1.26066 20.5235L2.99715 19.5312ZM3.00295 19.485C2.98492 19.3498 2.97266 19.1505 2.97266 18.875H0.972656C0.972656 19.1985 0.986439 19.494 1.02049 19.7494L3.00295 19.485ZM2.97266 18.875C2.97266 18.5193 2.97908 18.2482 2.99046 18.0548L0.993913 17.9374C0.97925 18.1867 0.972656 18.5015 0.972656 18.875H2.97266ZM2.99046 18.0548C3.0014 17.8689 3.0209 17.7802 3.02814 17.7561L1.11249 17.1814C1.0416 17.4177 1.00902 17.6806 0.993913 17.9374L2.99046 18.0548ZM3.01011 17.8105C3.01893 17.7862 3.00613 17.8358 2.93595 17.896L1.63436 16.3775C1.38189 16.5939 1.22586 16.8648 1.13052 17.127L3.01011 17.8105ZM2.93595 17.896C2.9357 17.8962 2.94346 17.8895 2.96286 17.8777C2.9822 17.8659 3.01071 17.8503 3.05052 17.8322L2.22292 16.0115C2.01893 16.1042 1.81519 16.2225 1.63436 16.3775L2.93595 17.896ZM3.0778 17.8193L15.6755 11.6279L14.7933 9.833L2.19564 16.0244L3.0778 17.8193ZM15.6686 9.82967L3.14908 3.79451L2.28061 5.59611L14.8001 11.6313L15.6686 9.82967ZM3.1339 3.78735C2.98546 3.71884 2.88997 3.66702 2.83469 3.63247L1.77469 5.32847C1.92774 5.42412 2.10569 5.51553 2.29579 5.60327L3.1339 3.78735ZM2.95548 3.72121C3.02566 3.78137 3.03846 3.83097 3.02964 3.80669L1.15005 4.49018C1.24539 4.75236 1.40142 5.02332 1.6539 5.23973L2.95548 3.72121ZM3.02964 3.80669C3.02195 3.78556 3.00013 3.70728 2.99046 3.54284L0.993913 3.66028C1.01028 3.93855 1.05357 4.22486 1.15005 4.49018L3.02964 3.80669ZM2.99065 3.54609C2.97908 3.33781 2.97266 3.05234 2.97266 2.68359H0.972656C0.972656 3.07005 0.979257 3.39657 0.993727 3.65703L2.99065 3.54609ZM2.97266 2.68359C2.97266 2.36017 2.9857 2.15554 3.00167 2.04377L1.02177 1.76092C0.985654 2.01373 0.972656 2.32993 0.972656 2.68359H2.97266ZM3.00295 2.03451C3.00719 2.00267 3.01136 1.97786 3.01501 1.95926C3.0187 1.94044 3.02135 1.93057 3.02207 1.92804C3.02291 1.9251 3.02049 1.93435 3.01287 1.95232C3.00892 1.96163 3.00307 1.97445 2.9949 1.98998C2.98675 2.00546 2.97565 2.02485 2.96096 2.04689L1.29686 0.937487C1.10903 1.21923 1.04925 1.55448 1.02049 1.77018L3.00295 2.03451ZM2.94264 2.07343C2.89458 2.1407 2.80465 2.23585 2.66027 2.30249C2.51226 2.3708 2.36802 2.38093 2.25878 2.36728L2.50685 0.382722C2.29344 0.356046 2.05479 0.379199 1.82215 0.486572C1.59314 0.592271 1.42833 0.752524 1.31517 0.910949L2.94264 2.07343ZM2.25878 2.36728C2.23802 2.36468 2.22337 2.36137 2.21556 2.35936C2.20771 2.35734 2.20506 2.3562 2.20801 2.35729C2.2109 2.35836 2.21805 2.36115 2.22969 2.36654C2.24128 2.37191 2.25635 2.37941 2.27505 2.38961L3.23276 0.633823C3.03379 0.525293 2.78479 0.417465 2.50685 0.382722L2.25878 2.36728ZM2.30397 2.40478L17.6946 10.1587L18.5945 8.37256L3.20384 0.618656L2.30397 2.40478ZM17.6973 10.1601C17.5565 10.0897 17.4923 9.99781 17.478 9.97558C17.4644 9.95429 17.4769 9.96685 17.4992 10.0413L19.4149 9.46656C19.3198 9.14954 19.1116 8.63113 18.5917 8.3712L17.6973 10.1601ZM17.5187 10.0996C17.5506 10.1862 17.5938 10.3954 17.5938 10.7891H19.5938C19.5938 10.2973 19.5458 9.81642 19.3954 9.4082L17.5187 10.0996Z" fill="black"/>
</g>
<defs>
<filter id="filter0_b" x="-3.02734" y="-3.62741" width="26.6211" height="28.7915" filterUnits="userSpaceOnUse" color-interpolation-filters="sRGB">
<feFlood flood-opacity="0" result="BackgroundImageFix"/>
<feGaussianBlur in="BackgroundImage" stdDeviation="2"/>
<feComposite in2="SourceAlpha" operator="in" result="effect1_backgroundBlur"/>
<feBlend mode="normal" in="SourceGraphic" in2="effect1_backgroundBlur" result="shape"/>
</filter>
</defs>
</svg>
